<svg height="853.33331pt" viewBox="-26 -26 853.33331 853.33331" width="853.33331pt" xmlns="http://www.w3.org/2000/svg"><path d="m38.25 691.585938h40v13.328124c0 22.097657 17.90625 40.007813 40 40.007813h40v13.328125c0 22.089844 17.910156 40 40 40h293.335938c7.359374 0 13.328124-5.964844 13.328124-13.335938 0-7.363281-5.96875-13.328124-13.328124-13.328124h-293.335938c-7.363281 0-13.335938-5.972657-13.335938-13.335938v-613.328125c0-7.371094 5.972657-13.339844 13.335938-13.339844h333.332031v40.003907c0 22.085937 17.910157 40 40.003907 40h40v146.664062c0 7.363281 5.972656 13.335938 13.328124 13.335938 7.371094 0 13.335938-5.972657 13.335938-13.335938v-160c0-.28125-.144531-.53125-.160156-.824219-.074219-1.175781-.308594-2.339843-.6875-3.453125-.148438-.429687-.261719-.828125-.441406-1.238281-.652344-1.457031-1.558594-2.78125-2.671876-3.90625l-76.039062-76.101563v-21.140624c0-22.09375-17.910156-40.003907-40-40.003907h-40v-13.332031c0-22.089844-17.910156-40-40-40h-400c-22.089844 0-40 17.910156-40 40v613.332031c0 22.097657 17.910156 40.003907 40 40.003907zm533.335938-506.671876c-7.367188 0-13.335938-5.96875-13.335938-13.328124v-21.148438l34.484375 34.476562zm-40.003907-93.328124v13.328124h-333.332031c-22.089844 0-40 17.90625-40 40.007813v573.328125h-40c-7.363281 0-13.335938-5.964844-13.335938-13.335938v-613.328124c0-7.367188 5.972657-13.335938 13.335938-13.335938h400c7.363281 0 13.332031 5.96875 13.332031 13.335938zm-506.667969-53.335938c0-7.363281 5.972657-13.335938 13.335938-13.335938h400c7.363281 0 13.332031 5.972657 13.332031 13.335938v13.332031h-333.332031c-22.09375 0-40 17.910157-40 40.003907v573.335937h-40c-7.363281 0-13.335938-5.972656-13.335938-13.339844zm0 0"/><path d="m544.921875 291.585938h-293.339844c-7.359375 0-13.332031 5.972656-13.332031 13.328124 0 7.371094 5.972656 13.335938 13.332031 13.335938h293.339844c7.355469 0 13.328125-5.964844 13.328125-13.335938 0-7.355468-5.972656-13.328124-13.328125-13.328124zm0 0"/><path d="m251.582031 211.585938h106.667969c7.363281 0 13.335938-5.972657 13.335938-13.335938s-5.972657-13.335938-13.335938-13.335938h-106.667969c-7.359375 0-13.332031 5.972657-13.332031 13.335938s5.972656 13.335938 13.332031 13.335938zm0 0"/><path d="m558.25 371.585938c0-7.367188-5.972656-13.335938-13.328125-13.335938h-293.339844c-7.359375 0-13.332031 5.96875-13.332031 13.335938 0 7.359374 5.972656 13.328124 13.332031 13.328124h293.339844c7.355469 0 13.328125-5.96875 13.328125-13.328124zm0 0"/><path d="m544.921875 438.25c0-7.363281-5.972656-13.335938-13.339844-13.335938h-280c-7.359375 0-13.332031 5.972657-13.332031 13.335938s5.972656 13.332031 13.332031 13.332031h280c7.367188 0 13.339844-5.96875 13.339844-13.332031zm0 0"/><path d="m504.914062 504.914062c0-7.355468-5.96875-13.328124-13.328124-13.328124h-240.003907c-7.359375 0-13.332031 5.972656-13.332031 13.328124 0 7.371094 5.972656 13.335938 13.332031 13.335938h240.003907c7.359374 0 13.328124-5.964844 13.328124-13.335938zm0 0"/><path d="m398.25 558.25h-146.667969c-7.359375 0-13.332031 5.96875-13.332031 13.335938 0 7.359374 5.972656 13.328124 13.332031 13.328124h146.667969c7.363281 0 13.335938-5.96875 13.335938-13.328124 0-7.367188-5.972657-13.335938-13.335938-13.335938zm0 0"/><path d="m251.582031 651.582031h133.332031c7.371094 0 13.335938-5.96875 13.335938-13.332031s-5.964844-13.335938-13.335938-13.335938h-133.332031c-7.359375 0-13.332031 5.972657-13.332031 13.335938s5.972656 13.332031 13.332031 13.332031zm0 0"/><path d="m251.582031 718.25h146.667969c7.363281 0 13.335938-5.964844 13.335938-13.335938 0-7.355468-5.972657-13.328124-13.335938-13.328124h-146.667969c-7.359375 0-13.332031 5.972656-13.332031 13.328124 0 7.371094 5.972656 13.335938 13.332031 13.335938zm0 0"/><path d="m593.875 386.679688c-5.117188-2.921876-11.542969-2.128907-15.800781 1.941406-4.265625 4.0625-5.355469 10.449218-2.675781 15.695312 10.285156 23.46875 15.40625 48.871094 15.011718 74.496094 0 15.996094-17.8125 35.996094-36.667968 57.089844-27.6875 31.03125-62.15625 69.652344-62.15625 120.121094 0 87.734374 55.59375 142.226562 145.101562 142.226562h2.511719c49.785156-.574219 159.050781-17.71875 159.050781-158.328125 0-135.085937-196-248.496094-204.375-253.242187zm44.71875 384.90625h-.585938c-27.304687-.191407-39.757812-26.339844-39.757812-50.667969 0-30.265625 25.878906-62.050781 40-77.136719 14.121094 15.085938 40 46.871094 40 77.136719 0 24.296875-12.425781 50.382812-39.65625 50.667969zm56.738281-9.21875c6.390625-12.875 9.675781-27.074219 9.582031-41.449219 0-53.332031-55.382812-103.789063-57.742187-105.910157-5.074219-4.558593-12.769531-4.558593-17.84375 0-2.363281 2.121094-57.742187 52.578126-57.742187 105.910157-.0625 14.082031 3.101562 27.992187 9.238281 40.667969-40.292969-16.484376-62.574219-52.925782-62.574219-105.5625 0-40.292969 29.425781-73.261719 55.386719-102.359376 22.347656-25.042968 43.441406-48.671874 43.441406-74.851562 0-16.539062-1.8125-33.011719-5.410156-49.144531 54.074219 36.953125 159.917969 120.730469 159.917969 210.253906 0 75.539063-36.773438 108.582031-76.253907 122.410156zm0 0"/></svg>